<svg width="160" height="161" xmlns="http://www.w3.org/2000/svg" xmlns:xlink="http://www.w3.org/1999/xlink" xml:space="preserve" overflow="hidden"><g transform="translate(-753 -110)"><path d="M94.6667 17.5 101.333 17.5 101.333 37.5 94.6667 37.5Z" stroke="#0D292E" stroke-width="1.66667" fill="#0D292E" transform="matrix(1 0 0 1.00625 753 110)"/><path d="M117.864 36.446 137.926 36.446 137.926 43.1333 117.864 43.1333Z" stroke="#0D292E" stroke-width="1.67183" fill="#0D292E" transform="matrix(-0.704914 0.70932 -0.704914 -0.70932 998.777 87.4533)"/><path d="M129.667 65.8333 149.667 65.8333 149.667 72.5 129.667 72.5Z" stroke="#0D292E" stroke-width="1.66667" fill="#0D292E" transform="matrix(1 0 0 1.00625 753 110)"/><path d="M124.552 88.9416 131.239 88.9416 131.239 109.004 124.552 109.004Z" stroke="#0D292E" stroke-width="1.67183" fill="#0D292E" transform="matrix(-0.704914 0.70932 -0.704914 -0.70932 1040.46 188.693)"/><path d="M46.3333 65.8333 66.3333 65.8333 66.3333 72.5 46.3333 72.5Z" stroke="#0D292E" stroke-width="1.66667" fill="#0D292E" transform="matrix(1 0 0 1.00625 753 110)"/><path d="M65.5359 29.7587 72.2233 29.7587 72.2233 49.8207 65.5359 49.8207Z" stroke="#0D292E" stroke-width="1.67183" fill="#0D292E" transform="matrix(-0.704914 0.70932 -0.704914 -0.70932 898.165 129.399)"/><path d="M108 110.833C107.167 110.833 106.333 110.833 105.5 111 105.5 111 105.5 110.833 105.5 110.833 105.5 104.5 102.5 98.3333 97.1667 94.6667 92 90.8333 85.3333 89.8333 79.1667 91.8333 74 82.1667 62.8333 77.1667 52.1667 79.8333 41.5 82.3333 34 91.8333 33.6667 102.833 26.6667 101.5 19.1667 104.167 14.5 110 10 115.833 9 123.833 12 130.5 15 137.333 21.5 141.833 29 142.333L109 142.5C117.667 142.333 124.667 135 124.333 126.167 124.167 117.5 116.833 110.667 108 110.833Z" stroke="#0D292E" stroke-width="1.66667" fill="#0D292E" transform="matrix(1 0 0 1.00625 753 110)"/><path d="M74.3333 77.1667C77.3333 79 80.1667 81.5 82.3333 84.3333 91 83.3333 99.5 86.5 105.333 93 115 90 122 81.5 122.833 71.3333 123.667 61.1667 118.333 51.5 109.333 46.8333 100.333 42.1667 89.3333 43.5 81.6667 50.1667 74 56.8333 71.1667 67.5 74.3333 77.1667L74.3333 77.1667Z" stroke="#0D292E" stroke-width="1.66667" fill="#0D292E" transform="matrix(1 0 0 1.00625 753 110)"/></g></svg>