<svg width="161" height="161" xmlns="http://www.w3.org/2000/svg" xmlns:xlink="http://www.w3.org/1999/xlink" xml:space="preserve" overflow="hidden"><g transform="translate(-193 -119)"><path d="M288.258 136.609 294.967 136.609 294.967 156.734 288.258 156.734Z" stroke="#3B6C00" stroke-width="1.67708" fill="#3B6C00"/><path d="M330.857 154.205 316.627 168.435 311.884 163.692 326.114 149.461Z" stroke="#3B6C00" stroke-width="1.67707" fill="#3B6C00"/><path d="M323.477 185.245 343.602 185.245 343.602 191.953 323.477 191.953Z" stroke="#3B6C00" stroke-width="1.67708" fill="#3B6C00"/><path d="M330.823 222.952 326.08 227.695 311.849 213.465 316.593 208.721Z" stroke="#3B6C00" stroke-width="1.67707" fill="#3B6C00"/><path d="M239.623 185.245 259.748 185.245 259.748 191.953 239.623 191.953Z" stroke="#3B6C00" stroke-width="1.67708" fill="#3B6C00"/><path d="M271.478 163.777 266.734 168.52 252.504 154.29 257.248 149.546Z" stroke="#3B6C00" stroke-width="1.67707" fill="#3B6C00"/><path d="M301.675 230.526C300.836 230.526 299.998 230.526 299.159 230.694 299.159 230.694 299.159 230.526 299.159 230.526 299.159 224.153 296.141 217.948 290.774 214.258 285.575 210.401 278.867 209.395 272.661 211.407 267.462 201.68 256.226 196.649 245.493 199.332 234.759 201.848 227.212 211.407 226.877 222.476 219.833 221.134 212.286 223.818 207.591 229.688 203.062 235.557 202.056 243.607 205.075 250.316 208.094 257.192 214.634 261.72 222.181 262.223L302.681 262.391C311.402 262.223 318.446 254.844 318.11 245.955 317.943 237.234 310.564 230.358 301.675 230.526Z" stroke="#3B6C00" stroke-width="1.67708" fill="#3B6C00"/><path d="M267.798 196.649C270.817 198.494 273.668 201.009 275.848 203.86 284.569 202.854 293.122 206.041 298.992 212.581 308.719 209.562 315.763 201.009 316.601 190.779 317.44 180.549 312.073 170.822 303.017 166.126 293.96 161.43 282.892 162.772 275.177 169.48 267.462 176.189 264.611 186.922 267.798 196.649L267.798 196.649Z" stroke="#3B6C00" stroke-width="1.67708" fill="#3B6C00"/></g></svg>