<svg width="96" height="96" xmlns="http://www.w3.org/2000/svg" xmlns:xlink="http://www.w3.org/1999/xlink" xml:space="preserve" overflow="hidden"><g transform="translate(-592 -273)"><path d="M629.244 308.6C630.606 308.599 631.95 308.295 633.18 307.711 633.55 307.573 633.912 307.412 634.263 307.23L634.263 310.978C634.263 311.943 636.89 312.999 640.13 312.999 643.37 312.999 646 311.944 646 310.979L646 304.079C650.785 305.237 655.775 303.206 658.39 299.034 661.62 293.465 659.726 286.332 654.158 283.1 650.378 280.754 645.608 280.702 641.778 282.965 641.213 282.399 640.582 281.901 639.9 281.482 635.437 278.633 629.51 279.939 626.658 284.4 625.555 286.22 625.125 288.369 625.442 290.474L625.391 290.953C620.749 293.076 618.707 298.559 620.829 303.201 622.335 306.494 625.624 308.604 629.244 308.6Z" stroke="#0D292E" fill="#0D292E"/><path d="M677.563 358.367 652.223 317.149C651.461 315.934 649.943 315.433 648.608 315.957 645.848 316.948 642.933 317.441 640 317.413 637.066 317.441 634.151 316.948 631.39 315.957 630.055 315.434 628.537 315.934 627.775 317.149L602.434 358.367C601.692 359.392 601.922 360.824 602.948 361.566 603.354 361.859 603.844 362.012 604.345 362L675.651 362C676.916 362.03 677.966 361.03 677.996 359.765 678.008 359.264 677.856 358.774 677.563 358.368ZM643 342.413C643 344.07 644.343 345.413 646 345.413 647.657 345.413 649 344.07 649 342.413L649 335.6C649 334.107 650.21 332.896 651.703 332.896 653.197 332.896 654.407 334.107 654.407 335.6L654.407 342.13 654.407 342.13C654.421 344.957 656.724 347.238 659.551 347.224 661.547 347.214 663.355 346.046 664.183 344.23L672.642 358 607.355 358 617.5 341.237 617.5 341.663C617.5 343.734 619.179 345.413 621.25 345.413 623.321 345.413 625 343.734 625 341.663L625 337.413C625 336.308 625.895 335.413 627 335.413 628.105 335.413 629 336.308 629 337.413L629 347.413C629 349.622 630.791 351.413 633 351.413 635.209 351.413 637 349.622 637 347.413L637 341.413C637 339.756 638.343 338.413 640 338.413 641.657 338.413 643 339.756 643 341.413Z" stroke="#0D292E" fill="#0D292E"/></g></svg>