<svg width="163" height="162" xmlns="http://www.w3.org/2000/svg" xmlns:xlink="http://www.w3.org/1999/xlink" xml:space="preserve" overflow="hidden"><g transform="translate(-19 -25)"><path d="M60.9528 91.4225C58.2771 101.046 61.0463 108.187 65.2104 114.75L30.6722 114.75 35.2124 140.238C35.7112 143.044 38.1382 145.098 40.9887 145.125L110.903 145.125C113.754 145.098 116.18 143.044 116.679 140.238L121.22 114.75 87.0954 114.75C84.8136 112.436 82.3839 110.272 79.8218 108.272 72.5689 102.369 69.499 99.2263 70.7093 94.151 71.9423 89.9414 76.116 87.8237 82.3384 85.0836 82.851 84.8578 83.3642 84.6296 83.8777 84.399 87.8597 83.7591 92.2104 83.3409 96.1922 83.0682 95.1755 84.0024 94.5707 85.3016 94.5101 86.681 94.51 90.9993 101.016 94.5 109.041 94.5 115.428 94.5 120.84 92.2798 122.789 89.1982 126.044 91.094 129.771 92.0287 133.536 91.8938 140.874 91.8938 146.822 88.9765 146.822 85.3777 146.822 81.7791 140.874 78.8618 133.536 78.8618 132.546 78.863 131.556 78.9191 130.572 79.03 130.744 78.5584 130.834 78.0607 130.838 77.5587 130.838 73.2402 124.332 69.7395 116.307 69.7395 109.267 69.7395 103.399 72.4336 102.063 76.0101 99.9152 76.0965 97.4472 76.2247 94.8367 76.4139 95.2255 75.7873 95.5589 75.1282 95.8333 74.4436 97.9788 68.8038 97.0009 62.4512 93.2588 57.7174 95.081 55.7977 96.1274 53.271 96.1958 50.625 96.1745 48.8281 95.6617 47.0713 94.7126 45.5451 94.9269 45.5504 95.1375 45.5625 95.3537 45.5625 100.811 45.5625 105.555 43.9487 107.98 41.5741 110.339 44.2169 113.749 45.6776 117.29 45.5625 123.347 45.5625 128.258 41.785 128.258 37.125 128.258 32.465 123.347 28.6875 117.29 28.6875 116.937 28.6875 116.589 28.7032 116.245 28.728 116.372 28.1605 116.439 27.5813 116.446 27 116.446 20.4761 108.891 15.1875 99.5708 15.1875 93.2646 15.1875 87.7757 17.6133 84.8792 21.2004 81.6232 19.426 77.966 18.5176 74.2583 18.5625 66.4639 18.5625 59.9219 22.2669 57.9833 27.2941 56.6678 27.1006 55.3399 27.0022 54.01 27 44.6902 27 37.135 31.5331 37.135 37.125 37.2787 39.6223 38.5833 41.9082 40.6603 43.3023 36.737 44.6165 34.0055 48.1823 33.7583 52.3125 33.7583 52.4419 33.7745 52.568 33.7816 52.6961 26.9244 53.7681 21.9475 56.9681 21.9475 60.75 21.9475 65.41 29.5027 69.1875 38.8225 69.1875 46.9002 69.1875 53.6434 66.3479 55.2995 62.5573 60.1953 64.7637 65.5138 65.8746 70.8833 65.8125 75.6277 65.8511 80.3375 65.0044 84.7711 63.3152 86.6012 65.2975 87.2348 68.1053 86.4334 70.6814 85.6869 72.5451 81.9097 74.2088 78.258 75.8172 71.7107 78.7003 63.5615 82.2879 60.9528 91.4225Z" stroke="#0D292E" stroke-width="1.6875" fill="#0D292E" transform="matrix(1.00617 0 0 1 19 25)"/></g></svg>