<svg width="96" height="96" xmlns="http://www.w3.org/2000/svg" xmlns:xlink="http://www.w3.org/1999/xlink" xml:space="preserve" overflow="hidden"><g transform="translate(-517 -417)"><path d="M565 427C544 427 527 444 527 465 527 486 544 503 565 503 586 503 603 486 603 465 603 444 586 427 565 427ZM531 465C531 456.1 534.4 448.1 540 442 540.9 442.5 541.8 443.3 542 444L542 450.3C542 450.7 542.1 451.2 542.4 451.5L549 460 549.5 459.5C549.8 459.2 549.9 458.7 549.7 458.3L548.5 456.3C548 455.5 548.8 454.5 549.7 454.8 550 454.9 550.2 455.1 550.3 455.3L553.6 461.8C554 462.5 554.6 463.1 555.3 463.3L559.7 464.8C560 464.9 560.2 465.1 560.3 465.3L560.6 465.8C560.9 466.5 561.6 466.9 562.4 466.9L563.6 466.9C563.9 466.9 564.2 467.1 564.4 467.3L565.7 469.2C566 469.6 566.4 469.9 566.9 470L569 470.5C569.6 470.6 569.9 471.3 569.7 471.8 569.7 471.8 568.1 473.4 568.1 475.7 568.1 482.3 574.1 484.2 574.1 485.7 574.1 489.8 573.5 495.5 573.2 497.7 570.6 498.3 567.9 498.7 565.1 498.7 546.3 499 531 483.7 531 465ZM577.8 496.5C580 494.6 583.7 491.4 585 490 586.7 488.1 587 485 587 485 587 485 594 483.1 594 478 594 474.5 587 473 587 473 585.8 469.1 579.9 467 575 467 573.9 467 570 469 570 469L568 468 568 465C568 464.4 567.6 464 567 464L565 464 565 461C565 460.4 564.6 460 564 460L563 460 561.9 460.7C560.9 461.4 559.5 461 559 459.9 559 459.9 558 458.5 558 457.9 558 453.6 563 453.9 563 453.9L565.2 453.9C565.7 453.9 566.1 454.2 566.2 454.7L566.8 457.2C566.9 457.6 567.3 458 567.8 458L568.2 458C568.7 458 569.1 457.7 569.2 457.2L569.9 453.5C570 453.2 570.1 452.9 570.3 452.6L573.1 449.1C573.7 448.4 574.5 448 575.4 448L578 448C578.6 448 579 447.6 579 447L579 446 578.7 445.7C578.1 445.1 578.5 444 579.4 444L580 444C580.6 444 581 444.4 581 445 581 445.6 581.4 446 582 446L583 446 583.6 443.4C583.8 442.5 583.4 441.7 582.7 441.2L574.2 436.1C574.1 436 573.9 436 573.7 436L572 436C570.9 436 570 436.9 570 438L570 439C570 439.6 569.6 440 569 440L568 440 567 439 564 439C563.4 439 563 438.6 563 438L563 435.5C563 435.2 563.1 434.9 563.4 434.7L569.8 432 570.8 433.7C571 433.9 571.2 434 571.5 434L574 434C574.6 434 575 433.6 575 433L575 432.5C588.9 436.8 599 449.7 599 465 599 479.2 590.2 491.4 577.8 496.5Z" stroke="#0D292E" fill="#0D292E"/><path d="M577.3 460.8 572.5 459.2C572.1 459.1 571.8 459.1 571.4 459.2L568 460C567.7 460.2 567.6 460.6 568 461L572.6 461C572.9 461 573.1 461 573.3 461.1L576.8 462.5C577.4 462.7 578 462.3 578 461.7 578 461.3 577.7 460.9 577.3 460.8Z" stroke="#0D292E" fill="#0D292E"/></g></svg>