<svg width="149" height="149" xmlns="http://www.w3.org/2000/svg" xmlns:xlink="http://www.w3.org/1999/xlink" xml:space="preserve" overflow="hidden"><g transform="translate(-731 -273)"><path d="M830.644 377.61C830.333 391.579 818.693 402.444 804.879 402.133 791.997 401.823 781.443 391.89 780.356 379.163L780.201 376.214C780.356 367.367 773.372 360.072 764.525 359.917 764.37 359.917 764.37 359.917 764.215 359.917 759.869 359.917 755.678 361.624 752.574 364.728 746.986 363.642 741.399 367.211 740.312 372.954 740.312 373.265 740.157 373.575 740.157 373.885L740.157 376.99 740.157 417.344 870.532 417.344 870.532 375.438 870.532 373.885C870.222 367.522 864.634 362.71 858.271 363.021 857.805 363.021 857.34 363.176 857.029 363.176 854.08 360.072 850.045 358.365 845.854 358.365 837.473 358.365 830.644 365.194 830.799 373.575 830.799 373.73 830.799 373.73 830.799 373.885L830.644 377.61Z" stroke="#0D292E" stroke-width="1.55208" fill="#0D292E"/><path d="M829.092 297.989 823.039 295.66 813.26 320.494 810.467 347.345 816.52 348.276C818.072 348.586 819.469 347.5 819.779 345.948 819.779 345.793 819.779 345.793 819.779 345.638 820.866 326.702 827.54 308.698 830.489 301.558 831.265 300.317 830.644 298.609 829.092 297.989 829.092 297.989 829.092 297.989 829.092 297.989Z" stroke="#0D292E" stroke-width="1.55208" fill="#0D292E"/><path d="M787.341 306.215C785.323 305.439 783.15 306.525 782.374 308.388 781.598 310.405 782.684 312.578 784.547 313.354 786.565 314.13 788.737 313.199 789.514 311.181 790.445 309.319 789.358 306.991 787.341 306.215 787.341 306.215 787.341 306.215 787.341 306.215Z" stroke="#0D292E" stroke-width="1.55208" fill="#0D292E"/><path d="M774.148 276.415C772.751 275.794 771.044 276.57 770.423 277.967 770.423 277.967 770.423 277.967 770.423 277.967L753.04 322.667C752.419 324.064 753.195 325.771 754.592 326.236 754.592 326.236 754.592 326.236 754.592 326.236L799.912 344.085 819.469 294.264 774.148 276.415ZM793.549 316.924C792.307 316.303 790.91 315.527 789.824 314.596 790.445 315.837 791.066 317.234 791.376 318.631 791.531 319.718 791.221 320.649 790.6 321.425 789.979 322.201 789.048 322.822 788.117 322.977 785.944 323.288 784.081 321.735 783.616 319.718 783.46 318.476 783.46 317.234 783.616 315.993 782.84 316.924 781.908 317.855 780.977 318.786 779.27 320.028 776.786 319.873 775.39 318.166 774.769 317.39 774.458 316.303 774.614 315.372 774.614 315.061 774.769 314.751 774.924 314.285 775.234 313.665 775.545 313.199 776.166 312.733 777.407 311.957 778.649 311.336 780.046 310.716 778.649 310.56 777.097 310.405 775.7 309.94 773.682 309.164 772.751 306.835 773.682 304.973 774.458 303.11 776.631 302.179 778.494 302.8 779.891 303.421 780.977 304.197 782.219 305.128 781.598 303.886 780.977 302.49 780.667 301.093 780.511 300.472 780.667 299.696 780.822 299.075 780.977 298.765 781.132 298.454 781.287 298.144 781.908 297.368 782.84 296.747 783.926 296.592 786.099 296.281 787.961 297.833 788.427 299.851 788.582 301.093 788.582 302.334 788.427 303.576 789.203 302.645 790.134 301.714 791.066 300.782 792.773 299.541 795.256 299.696 796.498 301.403 797.119 302.179 797.429 303.266 797.274 304.197 797.119 305.283 796.653 306.215 795.877 306.835 794.635 307.611 793.394 308.232 791.997 308.853 793.394 309.008 794.946 309.164 796.343 309.629 798.205 310.405 799.136 312.578 798.516 314.441 797.74 316.614 795.567 317.7 793.549 316.924Z" stroke="#0D292E" stroke-width="1.55208" fill="#0D292E"/><path d="M794.907 370.144C796.799 373.003 797.174 376.088 795.744 377.034 794.314 377.98 791.621 376.429 789.729 373.57 787.837 370.71 787.463 367.625 788.892 366.679 790.322 365.733 793.015 367.284 794.907 370.144Z" stroke="#0D292E" stroke-width="1.55211" fill="#0D292E"/><path d="M814.426 380.077C815.415 381.477 813.947 384.216 811.146 386.195 808.346 388.173 805.274 388.642 804.285 387.242 803.296 385.842 804.764 383.103 807.564 381.124 810.365 379.146 813.436 378.677 814.426 380.077Z" stroke="#0D292E" stroke-width="1.55203" fill="#0D292E"/><path d="M808.04 352.338C809.526 353.193 809.344 356.295 807.633 359.267 805.922 362.238 803.331 363.954 801.846 363.098 800.36 362.243 800.542 359.141 802.253 356.169 803.964 353.198 806.555 351.483 808.04 352.338Z" stroke="#0D292E" stroke-width="1.552" fill="#0D292E"/></g></svg>