<svg width="149" height="149" xmlns="http://www.w3.org/2000/svg" xmlns:xlink="http://www.w3.org/1999/xlink" xml:space="preserve" overflow="hidden"><g transform="translate(-199 -298)"><path d="M298.644 402.61C298.333 416.579 286.693 427.444 272.879 427.133 259.997 426.823 249.443 416.89 248.356 404.163L248.201 401.214C248.356 392.367 241.372 385.072 232.525 384.917 232.37 384.917 232.37 384.917 232.215 384.917 227.869 384.917 223.678 386.624 220.574 389.728 214.986 388.642 209.399 392.211 208.312 397.954 208.312 398.265 208.157 398.575 208.157 398.885L208.157 401.99 208.157 442.344 338.532 442.344 338.532 400.438 338.532 398.885C338.222 392.522 332.634 387.71 326.271 388.021 325.805 388.021 325.34 388.176 325.029 388.176 322.08 385.072 318.045 383.365 313.854 383.365 305.473 383.365 298.644 390.194 298.799 398.575 298.799 398.73 298.799 398.73 298.799 398.885L298.644 402.61Z" stroke="#3B6C00" stroke-width="1.55208" fill="#3B6C00"/><path d="M297.092 322.989 291.039 320.66 281.26 345.494 278.467 372.345 284.52 373.276C286.072 373.586 287.469 372.5 287.779 370.948 287.779 370.793 287.779 370.793 287.779 370.638 288.866 351.702 295.54 333.698 298.489 326.558 299.265 325.317 298.644 323.609 297.092 322.989 297.092 322.989 297.092 322.989 297.092 322.989Z" stroke="#3B6C00" stroke-width="1.55208" fill="#3B6C00"/><path d="M255.341 331.215C253.323 330.439 251.15 331.525 250.374 333.388 249.598 335.405 250.684 337.578 252.547 338.354 254.565 339.13 256.737 338.199 257.514 336.181 258.445 334.319 257.358 331.991 255.341 331.215 255.341 331.215 255.341 331.215 255.341 331.215Z" stroke="#3B6C00" stroke-width="1.55208" fill="#3B6C00"/><path d="M242.148 301.415C240.751 300.794 239.044 301.57 238.423 302.967 238.423 302.967 238.423 302.967 238.423 302.967L221.04 347.667C220.419 349.064 221.195 350.771 222.592 351.236 222.592 351.236 222.592 351.236 222.592 351.236L267.913 369.085 287.469 319.264 242.148 301.415ZM261.549 341.924C260.307 341.303 258.91 340.527 257.824 339.596 258.445 340.837 259.066 342.234 259.376 343.631 259.531 344.718 259.221 345.649 258.6 346.425 257.979 347.201 257.048 347.822 256.117 347.977 253.944 348.288 252.081 346.735 251.616 344.718 251.46 343.476 251.46 342.234 251.616 340.993 250.84 341.924 249.908 342.855 248.977 343.786 247.27 345.028 244.786 344.873 243.39 343.166 242.769 342.39 242.458 341.303 242.614 340.372 242.614 340.061 242.769 339.751 242.924 339.285 243.234 338.665 243.545 338.199 244.166 337.733 245.407 336.957 246.649 336.336 248.046 335.716 246.649 335.56 245.097 335.405 243.7 334.94 241.682 334.164 240.751 331.835 241.682 329.973 242.458 328.11 244.631 327.179 246.494 327.8 247.891 328.421 248.977 329.197 250.219 330.128 249.598 328.886 248.977 327.49 248.667 326.093 248.511 325.472 248.667 324.696 248.822 324.075 248.977 323.765 249.132 323.454 249.288 323.144 249.908 322.368 250.84 321.747 251.926 321.592 254.099 321.281 255.961 322.833 256.427 324.851 256.582 326.093 256.582 327.334 256.427 328.576 257.203 327.645 258.134 326.714 259.066 325.782 260.773 324.541 263.256 324.696 264.498 326.403 265.119 327.179 265.429 328.266 265.274 329.197 265.119 330.283 264.653 331.215 263.877 331.835 262.635 332.611 261.394 333.232 259.997 333.853 261.394 334.008 262.946 334.164 264.343 334.629 266.205 335.405 267.136 337.578 266.516 339.441 265.74 341.614 263.567 342.7 261.549 341.924Z" stroke="#3B6C00" stroke-width="1.55208" fill="#3B6C00"/><path d="M262.907 395.144C264.799 398.003 265.174 401.088 263.744 402.034 262.314 402.98 259.621 401.429 257.729 398.57 255.837 395.71 255.463 392.625 256.892 391.679 258.322 390.733 261.015 392.284 262.907 395.144Z" stroke="#3B6C00" stroke-width="1.55211" fill="#3B6C00"/><path d="M282.426 405.077C283.415 406.477 281.947 409.216 279.146 411.195 276.346 413.173 273.274 413.642 272.285 412.242 271.296 410.842 272.764 408.103 275.564 406.124 278.364 404.146 281.436 403.677 282.426 405.077Z" stroke="#3B6C00" stroke-width="1.55203" fill="#3B6C00"/><path d="M276.04 377.338C277.526 378.193 277.344 381.295 275.633 384.267 273.922 387.238 271.331 388.954 269.846 388.098 268.36 387.243 268.542 384.141 270.253 381.169 271.964 378.198 274.555 376.483 276.04 377.338Z" stroke="#3B6C00" stroke-width="1.552" fill="#3B6C00"/></g></svg>