<svg width="169" height="170" xmlns="http://www.w3.org/2000/svg" xmlns:xlink="http://www.w3.org/1999/xlink" xml:space="preserve" overflow="hidden"><g transform="translate(-834 -52)"><path d="M84.5 105.625C72.8812 105.625 63.375 96.1187 63.375 84.5 63.375 72.8812 72.8812 63.375 84.5 63.375 96.1187 63.375 105.625 72.8812 105.625 84.5 105.625 96.1187 96.1187 105.625 84.5 105.625ZM132.031 71.2969C130.975 67.424 129.391 63.7271 127.454 60.3823L131.855 47.1792 121.821 37.1448 108.618 41.5458C105.097 39.6094 101.4 38.025 97.5271 36.9688L91.5417 24.6458 77.4583 24.6458 71.2969 36.9688C67.424 38.025 63.7271 39.6094 60.3823 41.5458L47.1792 37.1448 37.1448 47.1792 41.5458 60.3823C39.6094 63.9031 38.025 67.6 36.9688 71.4729L24.6458 77.4583 24.6458 91.5417 36.9688 97.7031C38.025 101.576 39.6094 105.273 41.5458 108.618L37.1448 121.821 47.1792 131.855 60.3823 127.454C63.9031 129.391 67.6 130.975 71.4729 132.031L77.6344 144.354 91.7177 144.354 97.8792 132.031C101.752 130.975 105.449 129.391 108.794 127.454L121.997 131.855 132.031 121.821 127.63 108.618C129.567 105.097 131.151 101.4 132.207 97.5271L144.53 91.3656 144.53 77.2823 132.031 71.2969Z" fill="#0D292E" transform="matrix(1 0 0 1.00592 834 52)"/></g></svg>