<svg width="96" height="96" xmlns="http://www.w3.org/2000/svg" xmlns:xlink="http://www.w3.org/1999/xlink" xml:space="preserve" overflow="hidden"><g transform="translate(-592 -273)"><path d="M628.291 301.859C628.213 302.406 628.593 302.912 629.14 302.99 629.187 302.997 629.234 303 629.281 303L643.281 303C643.833 303 644.281 302.552 644.281 302 644.281 301.953 644.278 301.906 644.271 301.859L643.563 296.906C642.814 291.662 642.814 286.338 643.563 281.094L644.271 276.141C644.349 275.594 643.969 275.088 643.422 275.01 643.375 275.003 643.328 275 643.281 275L629.281 275C628.729 275 628.281 275.448 628.281 276 628.281 276.047 628.284 276.094 628.291 276.141L629 281.113C629.745 286.345 629.745 291.655 629 296.887Z" stroke="#0D292E" fill="#0D292E"/><path d="M671.519 319.226C668.286 320.609 665.395 322.682 663.047 325.3 664.087 323.288 664.989 321.207 665.747 319.072 667.788 316.111 669.255 312.793 670.072 309.29 671.439 303.668 671.192 298.311 669.7 294.544 666.645 297.205 663.966 301.851 662.6 307.473 661.739 310.882 661.507 314.42 661.916 317.912 660.624 321.556 658.841 325.007 656.616 328.169 657.367 325.127 657.435 321.956 656.816 318.884 656.233 315.075 654.53 311.526 651.923 308.689 650.511 312.274 650.198 316.198 651.023 319.962 651.596 323.55 653.139 326.913 655.483 329.688 652.364 333.715 648.332 336.941 643.719 339.1 643.583 339.034 643.433 339 643.281 339L629.281 339C628.729 339 628.281 339.448 628.281 340 628.281 340.047 628.284 340.094 628.291 340.141L629 345.113C629.745 350.345 629.745 355.655 629 360.887L628.291 365.859C628.213 366.406 628.593 366.912 629.14 366.99 629.187 366.997 629.234 367 629.281 367L643.281 367C643.833 367 644.281 366.552 644.281 366 644.281 365.953 644.278 365.906 644.271 365.859L643.563 360.906C642.814 355.662 642.814 350.338 643.563 345.094L643.806 343.394C647.242 342.036 650.429 340.117 653.235 337.714 655.599 339.401 658.351 340.463 661.235 340.801 664.429 341.349 667.714 340.935 670.671 339.61 668.187 337.528 665.14 336.233 661.918 335.89 659.593 335.544 657.222 335.646 654.935 336.19 657.657 333.58 660.001 330.604 661.9 327.346 666.118 327.864 670.397 327.163 674.229 325.326 678.817 323.285 682.368 320.275 684.167 317.253 680.721 316.564 676.108 317.185 671.519 319.226Z" stroke="#0D292E" fill="#0D292E"/><path d="M628.756 311.4 629 313.113C629.745 318.345 629.745 323.655 629 328.887L628.291 333.859C628.213 334.406 628.593 334.912 629.14 334.99 629.187 334.997 629.234 335 629.281 335L643.281 335C643.833 335 644.281 334.552 644.281 334 644.281 333.953 644.278 333.906 644.271 333.859L643.563 328.906C642.814 323.662 642.814 318.338 643.563 313.094L644.271 308.141C644.349 307.594 643.969 307.088 643.422 307.01 643.375 307.003 643.328 307 643.281 307L629.281 307C629.139 307 628.999 307.031 628.87 307.091 625.933 305.638 620.062 301.666 617 292.269 617.152 290.142 617 288.004 616.546 285.92 615.883 282.249 614.143 278.858 611.546 276.179 610.27 279.684 610.066 283.49 610.96 287.111 611.372 289.089 612.047 291.002 612.968 292.8 612.968 292.812 612.968 292.823 612.975 292.835 613.34 294.026 613.765 295.198 614.25 296.346 612.914 295.115 611.398 294.094 609.756 293.317 607.063 291.918 604.015 291.353 601 291.693 602.624 294.255 604.974 296.277 607.75 297.5 610.187 298.734 612.898 299.327 615.627 299.224 616.39 300.638 617.267 301.989 618.248 303.262 616.927 303.013 615.576 302.965 614.24 303.118 611.993 303.294 609.85 304.135 608.082 305.532 610.112 306.512 612.387 306.865 614.618 306.546 616.392 306.376 618.109 305.831 619.656 304.946 622.15 307.771 625.265 309.98 628.756 311.4Z" stroke="#0D292E" fill="#0D292E"/></g></svg>